<svg xmlns="http://www.w3.org/2000/svg" viewBox="0 0 256 256" width="256" height="256">
  <rect width="256" height="256" rx="24" fill="#ffffff"/>
  <g transform="translate(24 76) scale(1.14)">
    <path d="M0.00 72.28L0.00 52.78C0.00 51.67 0.90 50.78 2.01 50.78L14.65 50.87C15.74 50.88 16.64 50.01 16.66 48.92L16.87 40.55C16.90 39.50 17.74 38.65 18.79 38.60L32.89 38.03C33.97 37.98 34.81 37.09 34.81 36.02L34.74 23.04C34.73 21.93 35.63 21.03 36.74 21.03L48.40 21.03C49.51 21.03 50.40 20.13 50.40 19.03L50.40 14.77C50.40 13.66 51.30 12.77 52.40 12.77L66.84 12.77L81.33 12.85C82.44 12.85 83.34 11.96 83.34 10.85L83.34 2.00C83.34 0.90 84.24 0.00 85.34 0.00L115.51 0.00C116.62 0.00 117.51 0.90 117.51 2.00L117.51 17.78C117.51 18.89 118.41 19.79 119.52 19.78L140.61 19.69C141.71 19.69 142.60 20.57 142.62 21.66L142.80 31.69C142.83 32.77 143.71 33.64 144.79 33.65L164.73 33.81C165.81 33.81 166.69 34.68 166.71 35.76L166.97 48.00C167.00 49.08 167.88 49.95 168.96 49.96L180.59 50.07C181.67 50.08 182.55 50.95 182.57 52.03L182.99 72.49C183.02 73.61 182.11 74.53 180.99 74.53L178.77 74.53C177.67 74.53 176.77 75.43 176.77 76.53L176.77 81.79C176.77 82.90 175.88 83.79 174.77 83.79L145.54 83.79C144.44 83.79 143.54 84.69 143.54 85.79L143.54 88.33C143.54 89.44 142.65 90.33 141.54 90.33L67.21 90.33C66.10 90.33 65.21 89.44 65.21 88.33L65.21 84.98C65.21 83.87 64.31 82.98 63.21 82.98L19.71 82.98C18.60 82.98 17.71 82.08 17.71 80.98L17.71 76.26C17.71 75.16 16.81 74.26 15.70 74.26L2.00 74.28C0.90 74.28 0.00 73.38 0.00 72.28Z" fill="#54bcf3"/>
  </g>
</svg>
